<svg width="21" height="21" viewBox="0 0 21 21" fill="none" xmlns="http://www.w3.org/2000/svg">
<path d="M13.2843 0.0237014C13.0619 0.0387289 12.3436 0.0898225 11.6914 0.140916C9.37116 0.318241 6.46484 0.51961 4.11754 0.666879C2.42244 0.772072 1.28636 0.856226 1.02187 0.895298C0.736349 0.937375 0.580062 1.0035 0.402738 1.1688C0.228418 1.32809 0.141259 1.46634 0.0601101 1.70077C0 1.8811 0 1.92318 0 8.40004C0 12.3102 0.012022 14.9791 0.0270495 15.0663C0.0781431 15.3307 0.18033 15.5501 0.411754 15.8958C0.631156 16.2204 2.50659 18.9013 3.25797 19.9622C3.6607 20.5333 3.91317 20.8038 4.12656 20.9029C4.39405 21.0292 4.53531 21.0292 6.14626 20.921C6.97277 20.8639 9.19083 20.7166 11.0753 20.5934C12.9597 20.4701 15.5234 20.3018 16.7707 20.2177C18.018 20.1365 19.127 20.0554 19.2322 20.0374C19.7131 19.9562 20.0617 19.5925 20.1339 19.1026C20.1489 18.9854 20.1519 15.9799 20.1399 11.3815L20.1219 3.85271L20.0437 3.68441C20.0016 3.59424 19.9055 3.45899 19.8333 3.38987C19.7612 3.31773 18.6431 2.56035 17.3508 1.70077C15.4182 0.423433 14.9644 0.1319 14.7961 0.0778004C14.5557 -0.000342684 13.9516 -0.0213812 13.2843 0.0237014ZM14.5256 1.17782C14.7721 1.24093 14.8893 1.30705 15.9983 1.99531C17.3538 2.83685 17.498 2.93303 17.477 2.96609C17.4259 3.05024 17.1043 3.08932 15.8721 3.16145C15.1688 3.20353 13.8133 3.28467 12.8636 3.34178C7.84737 3.64834 4.94105 3.80162 4.72465 3.77457C4.36099 3.72648 4.22574 3.65736 3.78994 3.2967C3.37819 2.95407 3.02955 2.68658 2.50359 2.30488C2.33227 2.18466 2.19402 2.06744 2.19402 2.04641C2.19402 1.92017 2.36533 1.89613 3.98229 1.79394C4.79378 1.74285 6.05008 1.6617 6.77741 1.61361C7.50475 1.56553 8.71596 1.48438 9.46734 1.43328C10.2187 1.38219 11.4239 1.30104 12.1422 1.25295C12.8606 1.20486 13.5188 1.15978 13.5999 1.15377C14.0087 1.12672 14.3663 1.13574 14.5256 1.17782ZM18.6191 4.69125C18.7964 4.80846 18.7844 4.36966 18.7844 11.5077C18.7844 15.8146 18.7724 18.1048 18.7543 18.1769C18.6972 18.3783 18.5259 18.5256 18.2885 18.5767C18.2404 18.5857 17.0412 18.6638 15.6286 18.745C14.216 18.8261 12.5059 18.9283 11.8267 18.9704C11.1504 19.0125 9.91817 19.0876 9.09165 19.1357C8.26514 19.1838 6.96676 19.2619 6.20336 19.307C4.40908 19.4122 4.30388 19.4032 4.11754 19.0726L4.0424 18.9403V12.3433C4.0424 5.95657 4.04541 5.74318 4.09951 5.65301C4.16563 5.54481 4.24377 5.49071 4.38804 5.45465C4.57438 5.41257 7.65502 5.22322 11.4359 5.02486C12.2294 4.98278 13.095 4.9347 13.3595 4.91967C13.624 4.90164 14.3693 4.86256 15.0125 4.8295C15.6587 4.79644 16.5423 4.74234 16.9811 4.70928C17.4199 4.67622 17.8527 4.64617 17.9429 4.64016C18.2614 4.61611 18.538 4.63715 18.6191 4.69125Z" fill="#03e4fb"/>
<path d="M15.3581 6.49726C14.9193 6.53633 14.4114 6.57541 14.225 6.58743C13.8343 6.61448 13.7502 6.65054 13.6149 6.86393C13.4977 7.04727 13.4737 7.18252 13.5368 7.27869C13.5879 7.35684 13.6119 7.36585 14.1649 7.49509L14.5196 7.57925L14.5166 10.6268C14.5166 12.3039 14.5106 13.6804 14.5046 13.6864C14.4955 13.6985 14.204 13.2536 12.2925 10.3293C11.2165 8.67926 10.1917 7.15246 10.0925 7.04427C9.91816 6.86093 9.91816 6.86093 8.12087 6.95711C6.37166 7.05028 6.39871 7.04727 6.24243 7.23361C6.09816 7.40192 6.09516 7.76559 6.23642 7.88581C6.31456 7.95493 6.3927 7.97898 6.72932 8.04209C6.83451 8.06313 6.97277 8.0992 7.03889 8.12625L7.1531 8.17133V12.3099V16.4485L6.99681 16.5417C6.90965 16.5958 6.7203 16.6919 6.57604 16.7611C6.34461 16.8693 6.30855 16.8993 6.25445 17.0135C6.17931 17.1638 6.17631 17.269 6.23642 17.4734C6.29052 17.6537 6.44981 17.813 6.57604 17.813C6.62112 17.813 7.27933 17.7739 8.03972 17.7258C9.52744 17.6327 9.5575 17.6266 9.81898 17.4433C9.95723 17.3441 10.0083 17.2389 10.0083 17.0466C10.0083 16.8632 9.93018 16.7791 9.70176 16.719C9.38017 16.6318 8.97143 16.4876 8.9023 16.4335L8.83618 16.3854L8.84219 13.1845L8.85121 9.98665L9.36515 10.7651C9.84903 11.4954 10.9851 13.2627 12.3676 15.4236C13.3504 16.9624 13.4977 17.1518 13.8373 17.3171C14.1048 17.4493 14.3032 17.4704 14.8472 17.4253C15.4964 17.3712 15.7999 17.257 15.9382 17.0165C15.9652 16.9714 15.9773 15.7362 15.9893 12.2438L16.0043 7.52815L16.3259 7.40192C16.7497 7.23361 16.8789 7.14645 16.918 7.00219C16.9631 6.8429 16.9571 6.78579 16.8909 6.63852C16.7797 6.39508 16.6655 6.38606 15.3581 6.49726Z" fill="#03e4fb"/>
</svg>
